<svg width="512" height="512" viewBox="0 0 512 512" fill="none" xmlns="http://www.w3.org/2000/svg">
  <!-- Background shapes -->
  <circle cx="256" cy="256" r="180" fill="#FEEDD5" opacity="0.3" />
  <circle cx="360" cy="200" r="60" fill="#FEE2D5" opacity="0.4" />
  <circle cx="150" cy="320" r="80" fill="#FFD5D5" opacity="0.4" />
  
  <!-- WordPress logo (simplified) -->
  <g transform="translate(176, 156) scale(0.16)">
    <path d="M500,0C223.9,0,0,223.9,0,500s223.9,500,500,500s500-223.9,500-500S776.1,0,500,0z M500,950c-248.5,0-450-201.5-450-450
      c0-248.5,201.5-450,450-450s450,201.5,450,450C950,748.5,748.5,950,500,950z" fill="#FD5825"/>
    <path d="M500,50C251.5,50,50,251.5,50,500c0,248.5,201.5,450,450,450s450-201.5,450-450C950,251.5,748.5,50,500,50z M517.1,781.2
      c-9,0.8-17.9,1.2-27.1,1.2c-8.7,0-17.3-0.4-25.7-1.1L428,662.9l-99,274.3c-40.7-12.2-78.6-31.8-111.8-57.5l147.1-426.2h71.3
      c1.1,0.7,2.1,1.6,2.9,2.6c5.5,7.2,8.4,19.3,8.4,36.2c0,15.5-1.8,33.8-5.5,54.7c-3.6,20.9-9.1,44.8-16.3,71.7l-28.6,95.5L517.1,781.2
      z M277.8,280.9c11.2-0.7,21.5-1.2,30.7-1.4c9.5-0.2,18.1-0.3,25.8-0.3c8.3,0,16.1,0.1,23.6,0.4c7.5,0.3,15.2,0.7,23.2,1.4
      c1.5,0.1,3,0.4,4.4,0.7c-9.5,22.2-17.2,42.5-23,60.7c-5.9,18.2-10.3,36.1-13.2,53.7c-2.9,17.6-4.8,36.1-5.7,55.5
      c-0.9,19.4-1.4,41.4-1.4,66.2c0,14.8,0.5,30.1,1.4,45.8L277.8,280.9z M792.8,600.8c-26.1,48.9-63.1,90.9-108.1,122.7l0.2-0.7
      l-0.5,1.1c-0.3-0.2-0.6-0.4-0.9-0.6l-112.9-308.9c-0.2-0.7-0.5-1.3-0.8-1.9c9.3-3.9,20.3-6.4,33.2-7.5c1.9-0.1,3.6-1,4.9-2.4
      c1.3-1.4,2-3.3,1.9-5.3c-0.1-3.9-3.3-7-7.2-7.2c-12.2-0.5-23.6-0.8-34.2-0.8c-12.5,0-25.8,0.3-39.7,0.8c-3.9,0.1-7,3.3-7.2,7.2
      c-0.1,2,0.6,3.8,1.9,5.3c1.3,1.4,3,2.3,4.9,2.4c11.5,1,21.3,3.2,29.5,6.7c2.8,1.2,5.2,2.4,7.3,3.9l-0.9,3.1l-0.8,2.7l-0.4,1.1
      l-0.4,2c-0.3,1.3-0.6,2.7-0.9,4l-2.1,9.8c-1.4,6.6-2.8,13.1-4.2,19.7L520,566.4l-81.2-241.9c10.9-2.1,19.8-3.7,26.8-4.5
      c7-0.9,12.9-1.3,17.8-1.3c3.7,0,6.8,0.2,9.4,0.7c2.6,0.4,5.1,1.1,7.4,2.1c-0.3,0.9-0.5,1.7-0.8,2.5l-0.9,3.1l-0.8,2.7l-0.4,1.1
      c-0.1,0.7-0.3,1.3-0.4,2c-0.3,1.3-0.6,2.7-0.9,4l-2.1,9.8c-0.7,3.3-1.4,6.5-2.1,9.8c-0.7,3.3-1.4,6.6-2.1,9.8
      c-3,14.3-6.1,27.9-9.3,40.9c-3.2,13-6.5,25.6-9.9,37.8l-10.3,36.2c-3.5,12-6.9,23.9-10.4,35.7l3.9,12.2l62.5,186.3l-41.7,125
      c-39.8-13.3-76.2-35.4-106.5-64.2l0.9-2.3l1.9-4.9c0.6-1.6,1.2-3.3,1.8-4.9c0.6-1.6,1.2-3.3,1.8-4.9l3.9-10.7
      c2.6-7.2,5.2-14.3,7.8-21.4c2.6-7.1,5.2-14.3,7.8-21.4c3.9-10.6,7.4-20.3,10.7-29.3c3.3-8.9,6.4-17.5,9.3-25.7
      c2.9-8.2,5.7-16.3,8.4-24.3c2.7-8,5.4-16.2,8.2-24.6c8.7-26.4,17-50.3,24.8-71.7c7.8-21.4,15.4-41.4,22.7-59.9
      c7.3-18.5,14.9-36.6,22.7-54.3c7.8-17.7,16.3-37.2,25.5-58.5c1.1-0.3,2.9-0.7,5.5-1.1c2.6-0.4,5.7-0.8,9.4-1c3.7-0.3,7.9-0.5,12.7-0.7
      c4.8-0.1,9.9-0.2,15.3-0.2c10.1,0,20.5,0.3,31.2,0.7c-2.1,5.2-4.2,10.5-6.2,15.9c-2,5.4-4,10.9-6,16.3c-6.4,17.5-12.5,34-18.1,49.4
      c-5.7,15.5-11,30.6-16,45.3c-5,14.7-10,29.4-15,44c-5,14.6-10,30-15,46.1c-6.8,21.2-12.5,39.4-17.1,54.7
      c-4.6,15.3-8.4,28.8-11.4,40.5c-3,11.7-5.2,22.1-6.7,31.3c-1.5,9.2-2.3,18.2-2.3,27c0,6.7,0.5,12.7,1.6,18c1.1,5.3,2.9,9.9,5.3,13.7
      c2.4,3.9,5.6,6.8,9.5,8.9c3.9,2.1,8.7,3.1,14.5,3.1c7.4,0,14.7-1.9,21.8-5.6c7.1-3.7,14.1-8.8,20.9-15.3c6.8-6.5,13.5-14.2,19.9-23.2
      c6.4-9,12.8-18.8,19-29.5c6.4-10.6,12.7-21.8,18.8-33.4c6.1-11.6,12.1-23.4,18-35.3c11.9-24.1,23.2-48.4,33.9-72.8
      c10.8-24.5,21.4-49.7,31.8-75.7c3.3,7.4,6.8,15.8,10.5,25c3.7,9.3,7.5,19,11.3,29.3c3.9,10.3,7.8,20.9,11.9,31.8
      c4.1,10.9,8.1,21.6,12,32.1l11.9,32.1c4,10.7,7.9,20.8,11.7,30.4c1.2,3.2,2.5,6.3,3.7,9.3c-0.3,0-0.5,0-0.8,0L792.8,600.8z
      M781.7,597.4c1.1-2.8,2.1-5.7,3.2-8.4c3.8-9.6,7.7-19.8,11.7-30.4l11.9-32.1c4-10.6,8-21.3,12-32.1c4-10.9,8-21.5,11.9-31.8
      c3.9-10.3,7.6-20.1,11.3-29.3c3.7-9.3,7.2-17.6,10.5-25c8.2,20.2,15.6,42.9,22.3,68.1c3.3,12.5,5.8,25.4,7.5,38.5
      c1.7,13.2,2.5,26.6,2.5,40.3c0,48.7-12.2,94.5-33.7,134.5l-0.2,0.4l-1,1.9C812.3,674.1,782.4,631.8,781.7,597.4z" fill="#FD5825"/>
  </g>
  
  <!-- Connection lines -->
  <path d="M246 290 L 316 230" stroke="#FF7A50" stroke-width="3" stroke-dasharray="5,5" opacity="0.7" />
  <path d="M306 340 L 256 280" stroke="#FF7A50" stroke-width="3" stroke-dasharray="5,5" opacity="0.7" />
  
  <!-- AI icon -->
  <g transform="translate(306, 330)">
    <rect x="-40" y="-40" width="80" height="80" rx="20" fill="#FD5825" opacity="0.9" />
    <path d="M-15 -15 L 15 15 M -15 15 L 15 -15" stroke="white" stroke-width="4" stroke-linecap="round" />
    <circle cx="0" cy="0" r="8" fill="white" />
  </g>
  
  <!-- Website/WordPress icon -->
  <g transform="translate(246, 200)">
    <rect x="-40" y="-40" width="80" height="80" rx="20" fill="#FD5825" opacity="0.9" />
    <rect x="-20" y="-18" width="40" height="36" rx="3" stroke="white" stroke-width="3" fill="none" />
    <path d="M-20 -5 H 20" stroke="white" stroke-width="2" />
    <circle cx="-10" cy="-12" r="2" fill="white" />
    <circle cx="-3" cy="-12" r="2" fill="white" />
    <circle cx="4" cy="-12" r="2" fill="white" />
  </g>
  
  <!-- Integration connection circle -->
  <circle cx="316" cy="230" r="10" fill="#FF7A50" stroke="white" stroke-width="2" />
  <circle cx="256" cy="280" r="10" fill="#FF7A50" stroke="white" stroke-width="2" />
  
  <!-- Arrow indicators -->
  <path d="M280 252 L 292 240 L 296 248" stroke="white" stroke-width="2" fill="none" stroke-linecap="round" stroke-linejoin="round" />
  <path d="M276 260 L 264 272 L 270 276" stroke="white" stroke-width="2" fill="none" stroke-linecap="round" stroke-linejoin="round" />
</svg> 